<?xml version="1.0" encoding="utf-8"?>
<!-- Generator: Adobe Illustrator 27.1.0, SVG Export Plug-In . SVG Version: 6.00 Build 0)  -->
<svg version="1.1" id="Layer_1" xmlns="http://www.w3.org/2000/svg" xmlns:xlink="http://www.w3.org/1999/xlink" x="0px" y="0px"
	 viewBox="0 0 1541.7 1500" style="enable-background:new 0 0 1541.7 1500;" xml:space="preserve">
<style type="text/css">
	.st0{fill:#282832;}
	.st1{fill:#00D2D2;}
	.st2{clip-path:url(#SVGID_00000057865581274498946100000017640729199335013301_);}
	.st3{clip-path:url(#SVGID_00000115489533809444630910000017368075883054196411_);}
	.st4{fill:#FFFFFF;}
	.st5{clip-path:url(#SVGID_00000119116387312008464760000004985026476769923477_);}
	.st6{clip-path:url(#SVGID_00000059991801876552960430000004787727182254546855_);}
	.st7{clip-path:url(#SVGID_00000013901727753999777340000005413034763534119859_);}
	.st8{clip-path:url(#SVGID_00000106843668747621905170000006789750795676871352_);}
	.st9{fill:#F6F4F0;}
	.st10{clip-path:url(#SVGID_00000116193297708112840890000008576274966336570039_);}
	.st11{clip-path:url(#SVGID_00000176004507320737350920000005693759792678077605_);}
	.st12{clip-path:url(#SVGID_00000160189085431992051290000008300700021782163585_);}
	.st13{clip-path:url(#SVGID_00000055698991460767156070000018068488482725638813_);}
</style>
<g>
	<path class="st1" d="M1349.2,130.7c-32.1,18.4-75,67.8-90.3,146.5l-16.5,84.7c100.6-53.2,127.3-110.5,136.3-156.6
		c7.7-39.5,5.2-62.7,1.9-74.3c-1.7-5.7-7.5-9-13.3-7.7C1362.7,124.4,1357,126.3,1349.2,130.7 M1005.4,941.2
		c-15.5,14.1-30.4,28.8-44.6,44.2c-113,122.7-140.7,241.7-145.1,264.3c-16.1,83,6.8,124.8,22,127.7c20,3.8,91.2-43,126.1-222.9
		L1005.4,941.2L1005.4,941.2z M840.5,1500c-8.8,0-17.5-0.8-26.1-2.5c-79.5-15.5-150.6-106.9-118.6-271
		c7.3-37.8,65.8-289.5,344.7-465.8l41-210.9c-46.2,11.8-96.6,22.5-151.1,32C876,878.8,750.9,995.6,656.9,1004.5
		c-35.9,3.3-69-9.8-93.8-37.2c-15.9-17.6-27.5-40.3-35.7-66.1c-46.2,72.8-100,125.9-154.9,137.7c-39.8,8.5-75.9-0.8-102.1-26.4
		c-44.2-43.3-53.9-121.2-30.6-274.8c-35.2,14.9-82.7,38.8-143.4,77.2c-25.6,16.2-60.6,13.7-80.7-9c-25.8-29-18.7-72.7,12.7-92.5
		C211.5,597,300.8,591.1,316.9,591.1c18.3,0,35.5,8.2,47.1,22.2c11.6,14.1,16.3,32.6,12.8,50.5c-26.3,135.3-29.1,201.9-26.2,234.4
		c0.7,8.5,11,12.8,17.4,7.2c47.7-41.8,127.4-169.4,161.9-341.6c6.5-32.5,35.5-57.9,68.4-53.8c31.5,3.9,53.7,30.5,53.7,60.6
		c0,3.9-0.4,7.8-1.1,11.8C621.4,733.6,631.5,835,646.1,872c2.3,6,9.4,8.5,15,5.4c43.3-23.6,120.7-125.8,155.7-357.3
		c4-26.5,24.7-47.6,51.1-51.8c97.3-15.4,175.9-33.3,239.6-52.7l31.4-161.6c33.3-171.7,164-270.4,260.9-251.7
		c66.6,12.9,127.5,79.2,98.9,226.4c-24.1,124.2-114.7,214.8-284.7,279.7l-35,180.1c81.9-34.8,177.5-63,288.9-80.9
		c30-4.8,61.2,11.7,70.6,40.6c11.9,36.8-11.9,73.8-48.5,79.7c-129.6,20.5-243.4,57.7-340.3,111l-65.9,339.3
		C1039.9,1404.3,934.3,1500,840.5,1500"/>
	<path class="st1" d="M1389.5,978c0,40.5-32.9,73.3-73.3,73.3c-40.5,0-73.3-32.8-73.3-73.3c0-40.5,32.9-73.3,73.3-73.3
		C1356.7,904.7,1389.5,937.5,1389.5,978"/>
</g>
</svg>
